<svg width="26" height="19" viewBox="0 0 26 19" fill="none" xmlns="http://www.w3.org/2000/svg">
<path fill-rule="evenodd" clip-rule="evenodd" d="M12.8346 7.42526C11.7765 7.42526 10.9154 8.28638 10.9154 9.34455C10.9154 10.4027 11.7765 11.2638 12.8346 11.2638C13.8928 11.2638 14.7539 10.4027 14.7539 9.34455C14.7539 8.28638 13.8928 7.42526 12.8346 7.42526ZM12.8346 13.8229C10.3652 13.8229 8.3563 11.814 8.3563 9.34455C8.3563 6.87506 10.3652 4.8662 12.8346 4.8662C15.3041 4.8662 17.313 6.87506 17.313 9.34455C17.313 11.814 15.3041 13.8229 12.8346 13.8229ZM25.461 8.70737C24.6434 7.28453 20.1356 0.152444 12.4879 0.391716C5.41594 0.572129 1.30098 6.80343 0.208265 8.70737C-0.0169315 9.10274 -0.0169315 9.5864 0.208265 9.98177C1.01437 11.3854 5.36476 18.3013 12.8666 18.3013C12.9703 18.3013 13.0752 18.3 13.1814 18.2974C20.2533 18.117 24.3683 11.8857 25.461 9.98177C25.6862 9.5864 25.6862 9.10274 25.461 8.70737Z" fill="#575A65"/>
</svg>
